<svg preserveAspectRatio="none" overflow="visible" style="display: block;" width="39" height="39" viewBox="0 0 39 39" fill="none" xmlns="http://www.w3.org/2000/svg">
<g id="Layer_1" clip-path="url(#clip0_0_64)">
<path id="Vector" d="M37.9088 10.43L33.5899 15.1269L29.5319 10.4462C29.3363 10.1709 28.9451 10.1223 28.6844 10.3167C28.5214 10.43 28.4399 10.6082 28.4399 10.8025V17.3619C28.4236 19.8399 30.0697 22.0102 32.4654 22.6742V27.7274C31.9765 26.2697 30.9334 25.055 29.5482 24.3748C28.4236 23.7917 27.1361 23.5812 25.8812 23.7755C25.3597 26.1564 26.582 28.5858 28.8311 29.5737C29.9556 30.1568 31.2268 30.3673 32.4654 30.173V38.9188H34.91V22.6742C37.3058 22.1398 39.017 20.0181 39.0333 17.5725V10.7702C39.0333 10.43 38.7563 10.1709 38.414 10.1709C38.2184 10.1709 38.0555 10.2681 37.9251 10.4138L37.9088 10.43Z" fill="#F7F5F0"/>
<path id="Vector_2" d="M21.8535 35.2749C21.7068 35.5664 21.5764 35.8742 21.4623 36.1981V16.7305C24.7381 16.0826 27.1176 13.2159 27.1176 9.89576V0.809801C27.1176 0.356312 26.759 0 26.3027 0C26.0419 0 25.7975 0.113372 25.6508 0.32392L22.978 5.18272L20.7452 1.00415C20.5497 0.599253 20.0607 0.437292 19.6533 0.631645C19.5066 0.696429 19.3925 0.809801 19.3111 0.955565L16.8664 4.8588L14.4707 0.356312C14.1936 0 13.6884 -0.0809801 13.3299 0.194352C13.118 0.340116 13.0039 0.583056 13.0039 0.842193V9.58804C12.955 13.135 15.4974 16.1798 19.0177 16.7953V22.5772C17.8117 20.326 15.3019 19.0789 12.7757 19.4676C12.2542 21.8484 13.4765 24.2778 15.7256 25.2658C16.736 25.7841 17.8769 25.9946 19.0177 25.8974V39.0162H21.4623V38.9676C23.7929 39.2915 26.0582 38.093 27.085 35.9875C27.6717 34.87 27.8836 33.5905 27.688 32.3434C25.2922 31.8252 22.8476 33.0561 21.8535 35.2911V35.2749Z" fill="#F7F5F0"/>
<path id="Vector_3" d="M7.08988 32.2305C6.87801 32.6354 6.73133 33.0565 6.61725 33.51V25.6711C8.9478 25.0719 10.5613 22.9988 10.5775 20.618V13.8156C10.5775 13.4755 10.3005 13.2002 9.97454 13.2002C9.77897 13.2002 9.5997 13.2974 9.48561 13.4431L5.15047 18.1238L1.09238 13.4593C0.896814 13.184 0.505673 13.1354 0.244912 13.3298C0.0982346 13.4431 0.000449365 13.6213 0.000449365 13.8156V20.375C-0.0321457 22.9016 1.71169 25.1205 4.18892 25.7197V38.9357H6.63355V35.907C8.99669 36.3443 11.3598 35.1296 12.3377 32.9431C12.9244 31.8256 13.1363 30.5461 12.9407 29.299C10.545 28.7808 8.10032 30.0117 7.10617 32.2305H7.08988Z" fill="#F7F5F0"/>
</g>
<defs>
<clipPath id="clip0_0_64">
<rect width="39" height="39" fill="white"/>
</clipPath>
</defs>
</svg>
