<svg xmlns="http://www.w3.org/2000/svg" viewBox="0 0 480 360" role="img" aria-label="Schematische plattegrond Type C — penthouse">
  <rect width="480" height="360" fill="#F7F5F0"/>
  <g fill="none" stroke="#1D1F1A" stroke-width="3" stroke-linejoin="round">
    <path d="M30 40 H450 V250 H330 V320 H30 Z"/>
    <path d="M240 40 V320"/>
    <path d="M240 170 H450"/>
    <path d="M240 250 H330"/>
    <path d="M30 210 H240"/>
  </g>
  <g fill="none" stroke="#1D1F1A" stroke-width="1.5" opacity="0.45">
    <path d="M240 100 h26 M240 200 h26 M240 290 h26 M110 210 v26"/>
  </g>
  <g fill="#1D1F1A" font-family="Helvetica, Arial, sans-serif" font-size="14" letter-spacing="0.3">
    <text x="50" y="90">Woonkamer / keuken</text>
    <text x="50" y="108" opacity="0.55" font-size="12">46 m²</text>
    <text x="50" y="262">Slaapkamer 1</text>
    <text x="50" y="280" opacity="0.55" font-size="12">18 m²</text>
    <text x="256" y="100">Slaapkamer 2</text>
    <text x="256" y="118" opacity="0.55" font-size="12">14 m²</text>
    <text x="256" y="215">Slaapkamer 3</text>
    <text x="256" y="233" opacity="0.55" font-size="12">12 m²</text>
    <text x="256" y="292">Badkamer</text>
    <text x="256" y="310" opacity="0.55" font-size="12">8 m²</text>
  </g>
  <g stroke="#848F71" stroke-width="3" fill="none">
    <path d="M330 250 H450 V320 H330 Z" stroke-dasharray="6 6"/>
  </g>
  <text x="340" y="278" fill="#848F71" font-family="Helvetica, Arial, sans-serif" font-size="12">Dakterras</text>
  <text x="450" y="344" fill="#1D1F1A" opacity="0.4" text-anchor="end" font-family="Helvetica, Arial, sans-serif" font-size="11">Type C · indicatief</text>
</svg>
